<svg xmlns="http://www.w3.org/2000/svg" version="1.1" xmlns:xlink="http://www.w3.org/1999/xlink" xmlns:svgjs="http://svgjs.dev/svgjs" width="1000" height="1000"><style>
    #light-icon {
      display: inline;
    }
    #dark-icon {
      display: none;
    }

    @media (prefers-color-scheme: dark) {
      #light-icon {
        display: none;
      }
      #dark-icon {
        display: inline;
      }
    }
  </style><g id="light-icon"><svg xmlns="http://www.w3.org/2000/svg" version="1.1" xmlns:xlink="http://www.w3.org/1999/xlink" xmlns:svgjs="http://svgjs.dev/svgjs" width="1000" height="1000"><g clip-path="url(#SvgjsClipPath2409)"><rect width="1000" height="1000" fill="#f9f9f9"></rect><g transform="matrix(20,0,0,20,160,100)"><svg xmlns="http://www.w3.org/2000/svg" version="1.1" xmlns:xlink="http://www.w3.org/1999/xlink" xmlns:svgjs="http://svgjs.dev/svgjs" width="34" height="40"><svg width="34" height="40" viewBox="0 0 34 40" fill="none" xmlns="http://www.w3.org/2000/svg">
<path d="M7.99763 16.0278C11.9013 12.1241 16.9941 6.53133 16.9941 7.03133C16.9941 7.53133 16.9941 36.5197 16.9941 37.0195C16.9941 37.5193 32.488 22.0254 31.9882 22.0254C31.4884 22.0254 2 22 2 22" stroke="black" stroke-width="4" stroke-linecap="round"></path>
<circle cx="17" cy="2" r="2" fill="black"></circle>
</svg></svg></g></g><defs><clipPath id="SvgjsClipPath2409"><rect width="1000" height="1000" x="0" y="0" rx="250" ry="250"></rect></clipPath></defs></svg></g><g id="dark-icon"><svg xmlns="http://www.w3.org/2000/svg" version="1.1" xmlns:xlink="http://www.w3.org/1999/xlink" xmlns:svgjs="http://svgjs.dev/svgjs" width="1000" height="1000"><g clip-path="url(#SvgjsClipPath2410)"><rect width="1000" height="1000" fill="#fbfbfb"></rect><g transform="matrix(20,0,0,20,160,100)"><svg xmlns="http://www.w3.org/2000/svg" version="1.1" xmlns:xlink="http://www.w3.org/1999/xlink" xmlns:svgjs="http://svgjs.dev/svgjs" width="34" height="40"><svg width="34" height="40" viewBox="0 0 34 40" fill="none" xmlns="http://www.w3.org/2000/svg">
<path d="M7.99763 16.0278C11.9013 12.1241 16.9941 6.53133 16.9941 7.03133C16.9941 7.53133 16.9941 36.5197 16.9941 37.0195C16.9941 37.5193 32.488 22.0254 31.9882 22.0254C31.4884 22.0254 2 22 2 22" stroke="black" stroke-width="4" stroke-linecap="round"></path>
<circle cx="17" cy="2" r="2" fill="black"></circle>
</svg></svg></g></g><defs><clipPath id="SvgjsClipPath2410"><rect width="1000" height="1000" x="0" y="0" rx="250" ry="250"></rect></clipPath></defs></svg></g></svg>